# xmcd
#
# Track frame offsets:
#	150
#	13649
#	35433
#	49196
#	65549
#	81276
#	100615
#	114222
#	135215
#	149466
#	187593
#	216064
#	227712
#	252402
#	270447
#	282429
#	297240
#
# Disc length: 4176 seconds
#
# Revision: 0
# Processed by: cddbd v1.5.2PL0 Copyright (c) Steve Scherf et al.
# Submitted via: audiograbber 1.83.01
#
DISCID=e9104e11
DTITLE=Taj Mahal - The Best of Taj Mahal
DYEAR=2001
DGENRE=Blues
TTITLE0=Statesboro Blues
TTITLE1=Leaving Trunk
TTITLE2=Corinna
TTITLE3=Going Up to the country, Paint My Mailbox Blue
TTITLE4=She Caught the Katy and Left Me A Mule For Ride
TTITLE5=Take A Giant Step
TTITLE6=Six Days on the Road
TTITLE7=Farther On Down The Road
TTITLE8=Fishin' Blues
TTITLE9=Ain't Gwine To Whistle Dixie (Any Mo) (Live)
TTITLE10=You're Going to Need Somebody On Your Bond (Live)
TTITLE11=Cakewalk Into Town
TTITLE12=Oh Susanna
TTITLE13=Frankie And Albert
TTITLE14=Chevrolet
TTITLE15=Johnny Too Bad
TTITLE16=Sweet Mama Janisee (previously unreleased)
EXTD=
EXTT0=
EXTT1=
EXTT2=
EXTT3=
EXTT4=
EXTT5=
EXTT6=
EXTT7=
EXTT8=
EXTT9=
EXTT10=
EXTT11=
EXTT12=
EXTT13=
EXTT14=
EXTT15=
EXTT16=
PLAYORDER=
